# Blender 4.4.3
# www.blender.org
mtllib RingMesh.mtl
o Ring
v 0.000000 -0.250000 -2.000000
v 0.000000 0.250000 -2.000000
v 0.765367 -0.250000 -1.847759
v 0.765367 0.250000 -1.847759
v 1.414214 -0.250000 -1.414214
v 1.414214 0.250000 -1.414214
v 1.847759 -0.250000 -0.765367
v 1.847759 0.250000 -0.765367
v 2.000000 -0.250000 0.000000
v 2.000000 0.250000 0.000000
v 1.847759 -0.250000 0.765367
v 1.847759 0.250000 0.765367
v 1.414214 -0.250000 1.414214
v 1.414214 0.250000 1.414214
v 0.765367 -0.250000 1.847759
v 0.765367 0.250000 1.847759
v 0.000000 -0.250000 2.000000
v 0.000000 0.250000 2.000000
v -0.765367 -0.250000 1.847759
v -0.765367 0.250000 1.847759
v -1.414214 -0.250000 1.414214
v -1.414214 0.250000 1.414214
v -1.847759 -0.250000 0.765367
v -1.847759 0.250000 0.765367
v -2.000000 -0.250000 0.000000
v -2.000000 0.250000 0.000000
v -1.847759 -0.250000 -0.765367
v -1.847759 0.250000 -0.765367
v -1.414214 -0.250000 -1.414214
v -1.414214 0.250000 -1.414214
v -0.765367 -0.250000 -1.847759
v -0.765367 0.250000 -1.847759
v -0.000000 0.450000 -1.800000
v 0.688830 0.450000 -1.662983
v 1.272792 0.450000 -1.272792
v 1.662983 0.450000 -0.688830
v 1.800000 0.450000 0.000000
v 1.662983 0.450000 0.688830
v 1.272792 0.450000 1.272792
v 0.688830 0.450000 1.662983
v -0.000000 0.450000 1.800000
v -0.688830 0.450000 1.662983
v -1.272792 0.450000 1.272792
v -1.662983 0.450000 0.688830
v -1.800000 0.450000 0.000000
v -1.662983 0.450000 -0.688830
v -1.272792 0.450000 -1.272792
v -0.688830 0.450000 -1.662983
v -0.000000 -0.450000 -1.800000
v 0.688830 -0.450000 -1.662983
v 1.272792 -0.450000 -1.272792
v 1.662983 -0.450000 -0.688830
v 1.800000 -0.450000 0.000000
v 1.662983 -0.450000 0.688830
v 1.272792 -0.450000 1.272792
v 0.688830 -0.450000 1.662983
v -0.000000 -0.450000 1.800000
v -0.688830 -0.450000 1.662983
v -1.272792 -0.450000 1.272792
v -1.662983 -0.450000 0.688830
v -1.800000 -0.450000 0.000000
v -1.662983 -0.450000 -0.688830
v -1.272792 -0.450000 -1.272792
v -0.688830 -0.450000 -1.662983
vn -0.0000 -0.4431 -0.8965
vn -0.0000 0.4431 -0.8965
vn 0.3431 -0.4431 -0.8282
vn 0.3431 0.4431 -0.8282
vn 0.6339 -0.4431 -0.6339
vn 0.6339 0.4431 -0.6339
vn 0.8282 -0.4431 -0.3431
vn 0.8282 0.4431 -0.3431
vn 0.8965 -0.4431 -0.0000
vn 0.8965 0.4431 -0.0000
vn 0.8282 -0.4431 0.3431
vn 0.8282 0.4431 0.3431
vn 0.6339 -0.4431 0.6339
vn 0.6339 0.4431 0.6339
vn 0.3431 -0.4431 0.8282
vn 0.3431 0.4431 0.8282
vn -0.0000 -0.4431 0.8965
vn -0.0000 0.4431 0.8965
vn -0.3431 -0.4431 0.8282
vn -0.3431 0.4431 0.8282
vn -0.6339 -0.4431 0.6339
vn -0.6339 0.4431 0.6339
vn -0.8282 -0.4431 0.3431
vn -0.8282 0.4431 0.3431
vn -0.8965 -0.4431 -0.0000
vn -0.8965 0.4431 -0.0000
vn -0.8282 -0.4431 -0.3431
vn -0.8282 0.4431 -0.3431
vn -0.6339 -0.4431 -0.6339
vn -0.6339 0.4431 -0.6339
vn -0.3431 -0.4431 -0.8282
vn -0.3431 0.4431 -0.8282
vn -0.0000 0.7071 -0.7071
vn 0.2706 0.7071 -0.6533
vn 0.5000 0.7071 -0.5000
vn 0.6533 0.7071 -0.2706
vn 0.7071 0.7071 -0.0000
vn 0.6533 0.7071 0.2706
vn 0.5000 0.7071 0.5000
vn 0.2706 0.7071 0.6533
vn -0.0000 0.7071 0.7071
vn -0.2706 0.7071 0.6533
vn -0.5000 0.7071 0.5000
vn -0.6533 0.7071 0.2706
vn -0.7071 0.7071 -0.0000
vn -0.6533 0.7071 -0.2706
vn -0.5000 0.7071 -0.5000
vn -0.2706 0.7071 -0.6533
vn -0.0000 -0.7071 -0.7071
vn 0.2706 -0.7071 -0.6533
vn 0.5000 -0.7071 -0.5000
vn 0.6533 -0.7071 -0.2706
vn 0.7071 -0.7071 -0.0000
vn 0.6533 -0.7071 0.2706
vn 0.5000 -0.7071 0.5000
vn 0.2706 -0.7071 0.6533
vn -0.0000 -0.7071 0.7071
vn -0.2706 -0.7071 0.6533
vn -0.5000 -0.7071 0.5000
vn -0.6533 -0.7071 0.2706
vn -0.7071 -0.7071 -0.0000
vn -0.6533 -0.7071 -0.2706
vn -0.5000 -0.7071 -0.5000
vn -0.2706 -0.7071 -0.6533
vt 0.500000 0.335829
vt 0.500000 0.664171
vt 0.437175 0.664171
vt 0.437175 0.335829
vt 0.374349 0.664171
vt 0.374349 0.335829
vt 0.311524 0.664171
vt 0.311524 0.335829
vt 0.248699 0.664171
vt 0.248699 0.335829
vt 0.185873 0.664171
vt 0.185873 0.335829
vt 0.123048 0.664171
vt 0.123048 0.335829
vt 0.060223 0.664171
vt 0.060223 0.335829
vt 0.000000 0.664171
vt 0.000000 0.335829
vt 1.000000 0.335829
vt 1.000000 0.664171
vt 0.939777 0.664171
vt 0.939777 0.335829
vt 0.876952 0.664171
vt 0.876952 0.335829
vt 0.814126 0.664171
vt 0.814126 0.335829
vt 0.751301 0.664171
vt 0.751301 0.335829
vt 0.688476 0.664171
vt 0.688476 0.335829
vt 0.625651 0.664171
vt 0.625651 0.335829
vt 0.562825 0.664171
vt 0.562825 0.335829
vt 0.248699 1.000000
vt 0.185873 1.000000
vt 0.939777 1.000000
vt 0.876952 1.000000
vt 0.625651 1.000000
vt 0.562825 1.000000
vt 0.374349 1.000000
vt 0.311524 1.000000
vt 0.060223 1.000000
vt 0.000000 1.000000
vt 0.500000 1.000000
vt 0.437175 1.000000
vt 0.751301 1.000000
vt 0.688476 1.000000
vt 0.123048 1.000000
vt 0.814126 1.000000
vt 1.000000 1.000000
vt 0.311524 0.000000
vt 0.374349 0.000000
vt 0.000000 0.000000
vt 0.060223 0.000000
vt 0.437175 0.000000
vt 0.500000 0.000000
vt 0.688476 0.000000
vt 0.751301 0.000000
vt 0.123048 0.000000
vt 0.185873 0.000000
vt 0.814126 0.000000
vt 0.876952 0.000000
vt 0.562825 0.000000
vt 0.248699 0.000000
vt 0.939777 0.000000
vt 1.000000 0.000000
vt 0.625651 0.000000
s 1
usemtl 
f 1/1/1 2/2/2 4/3/4 3/4/3
f 3/4/3 4/3/4 6/5/6 5/6/5
f 5/6/5 6/5/6 8/7/8 7/8/7
f 7/8/7 8/7/8 10/9/10 9/10/9
f 9/10/9 10/9/10 12/11/12 11/12/11
f 11/12/11 12/11/12 14/13/14 13/14/13
f 13/14/13 14/13/14 16/15/16 15/16/15
f 15/16/15 16/15/16 18/17/18 17/18/17
f 17/19/17 18/20/18 20/21/20 19/22/19
f 19/22/19 20/21/20 22/23/22 21/24/21
f 21/24/21 22/23/22 24/25/24 23/26/23
f 23/26/23 24/25/24 26/27/26 25/28/25
f 25/28/25 26/27/26 28/29/28 27/30/27
f 27/30/27 28/29/28 30/31/30 29/32/29
f 29/32/29 30/31/30 32/33/32 31/34/31
f 31/34/31 32/33/32 2/2/2 1/1/1
f 12/11/12 10/9/10 37/35/37 38/36/38
f 22/23/22 20/21/20 42/37/42 43/38/43
f 32/33/32 30/31/30 47/39/47 48/40/48
f 8/7/8 6/5/6 35/41/35 36/42/36
f 18/17/18 16/15/16 40/43/40 41/44/41
f 4/3/4 2/2/2 33/45/33 34/46/34
f 28/29/28 26/27/26 45/47/45 46/48/46
f 14/13/14 12/11/12 38/36/38 39/49/39
f 24/25/24 22/23/22 43/38/43 44/50/44
f 2/2/2 32/33/32 48/40/48 33/45/33
f 10/9/10 8/7/8 36/42/36 37/35/37
f 20/21/20 18/20/18 41/51/41 42/37/42
f 30/31/30 28/29/28 46/48/46 47/39/47
f 6/5/6 4/3/4 34/46/34 35/41/35
f 16/15/16 14/13/14 39/49/39 40/43/40
f 26/27/26 24/25/24 44/50/44 45/47/45
f 5/6/5 7/8/7 52/52/52 51/53/51
f 15/16/15 17/18/17 57/54/57 56/55/56
f 1/1/1 3/4/3 50/56/50 49/57/49
f 25/28/25 27/30/27 62/58/62 61/59/61
f 11/12/11 13/14/13 55/60/55 54/61/54
f 21/24/21 23/26/23 60/62/60 59/63/59
f 31/34/31 1/1/1 49/57/49 64/64/64
f 7/8/7 9/10/9 53/65/53 52/52/52
f 17/19/17 19/22/19 58/66/58 57/67/57
f 27/30/27 29/32/29 63/68/63 62/58/62
f 3/4/3 5/6/5 51/53/51 50/56/50
f 13/14/13 15/16/15 56/55/56 55/60/55
f 23/26/23 25/28/25 61/59/61 60/62/60
f 9/10/9 11/12/11 54/61/54 53/65/53
f 19/22/19 21/24/21 59/63/59 58/66/58
f 29/32/29 31/34/31 64/64/64 63/68/63
